<svg height="512pt" viewBox="0 0 512 512" width="512pt" xmlns="http://www.w3.org/2000/svg"><path d="m466 0h-420c-25.363281 0-46 20.636719-46 46v420c0 25.363281 20.636719 46 46 46h420c25.363281 0 46-20.636719 46-46v-420c0-25.363281-20.636719-46-46-46zm16 46v195h-211v-211h195c8.820312 0 16 7.179688 16 16zm-436-16h195v211h-211v-195c0-8.820312 7.179688-16 16-16zm-16 436v-195h211v211h-195c-8.820312 0-16-7.179688-16-16zm436 16h-195v-211h211v195c0 8.820312-7.179688 16-16 16zm0 0"/><path d="m76 151h45v45c0 8.285156 6.714844 15 15 15s15-6.714844 15-15v-45h45c8.285156 0 15-6.714844 15-15s-6.714844-15-15-15h-45v-45c0-8.285156-6.714844-15-15-15s-15 6.714844-15 15v45h-45c-8.285156 0-15 6.714844-15 15s6.714844 15 15 15zm0 0"/><path d="m316 151h120c8.285156 0 15-6.714844 15-15s-6.714844-15-15-15h-120c-8.285156 0-15 6.714844-15 15s6.714844 15 15 15zm0 0"/><path d="m196 361h-120c-8.285156 0-15 6.714844-15 15s6.714844 15 15 15h120c8.285156 0 15-6.714844 15-15s-6.714844-15-15-15zm0 0"/><path d="m439.640625 312.359375c-5.859375-5.855469-15.355469-5.855469-21.214844 0l-42.425781 42.425781-42.425781-42.425781c-5.859375-5.855469-15.355469-5.855469-21.214844 0-5.855469 5.859375-5.855469 15.355469 0 21.214844l42.425781 42.425781-42.425781 42.425781c-5.855469 5.859375-5.855469 15.355469 0 21.214844 5.859375 5.855469 15.355469 5.859375 21.214844 0l42.425781-42.425781 42.425781 42.425781c5.859375 5.855469 15.355469 5.859375 21.214844 0 5.855469-5.859375 5.855469-15.355469 0-21.214844l-42.425781-42.425781 42.425781-42.425781c5.855469-5.859375 5.855469-15.355469 0-21.214844zm0 0"/><path d="m151 316c0 8.285156-6.714844 15-15 15s-15-6.714844-15-15 6.714844-15 15-15 15 6.714844 15 15zm0 0"/><path d="m151 436c0 8.285156-6.714844 15-15 15s-15-6.714844-15-15 6.714844-15 15-15 15 6.714844 15 15zm0 0"/></svg>